<svg width="23" height="23" fill="none" xmlns="http://www.w3.org/2000/svg"><path d="M11.5 1.608a10.126 10.126 0 0 0-7.152 2.85 9.942 9.942 0 0 0-3.027 7.026 9.834 9.834 0 0 0 1.94 5.812 9.982 9.982 0 0 0 5.019 3.569c.509.091.694-.211.694-.477V18.71c-2.832.596-3.433-1.32-3.433-1.32a2.626 2.626 0 0 0-1.13-1.45c-.925-.605.075-.595.075-.595a2.148 2.148 0 0 1 1.554 1.017 2.19 2.19 0 0 0 1.312 1.008 2.21 2.21 0 0 0 1.65-.192c.051-.502.28-.97.647-1.32-2.258-.248-4.627-1.091-4.627-4.878A3.786 3.786 0 0 1 6.05 8.31a3.437 3.437 0 0 1 .101-2.604s.86-.266 2.776 1.009a9.97 9.97 0 0 1 5.09 0c1.943-1.275 2.776-1.009 2.776-1.009.375.822.411 1.756.102 2.604a3.787 3.787 0 0 1 1.083 2.65c0 3.797-2.388 4.631-4.627 4.879a2.29 2.29 0 0 1 .694 1.834v2.704s.185.578.694.477a9.991 9.991 0 0 0 5.003-3.57 9.844 9.844 0 0 0 1.937-5.8 9.942 9.942 0 0 0-3.026-7.027 10.126 10.126 0 0 0-7.153-2.85Z" fill="#BEDEFC"/></svg>