<svg width="27" height="29" fill="none" xmlns="http://www.w3.org/2000/svg"><path d="M17.132 10.369c3.134 3.345 3.091 8.708.019 12.002l-.019.02-3.525 3.76c-3.109 3.314-8.167 3.314-11.275 0-3.11-3.315-3.11-8.709 0-12.023l1.946-2.076c.516-.55 1.405-.184 1.432.593.034.992.2 1.987.508 2.95a.943.943 0 0 1-.198.928l-.687.732c-1.47 1.568-1.516 4.12-.06 5.703 1.47 1.598 3.886 1.608 5.367.028l3.525-3.758c1.479-1.576 1.472-4.125 0-5.695a3.993 3.993 0 0 0-.543-.48.88.88 0 0 1-.26-.306.942.942 0 0 1-.104-.398 2.31 2.31 0 0 1 .614-1.667l1.104-1.178a.804.804 0 0 1 1.08-.097c.384.287.744.608 1.076.962Zm7.393-7.883c-3.109-3.314-8.167-3.315-11.276 0L9.724 6.245l-.019.02c-3.072 3.294-3.115 8.657.02 12.002.331.354.691.676 1.076.962.335.25.79.212 1.08-.097l1.104-1.177a2.31 2.31 0 0 0 .613-1.667.942.942 0 0 0-.104-.399.878.878 0 0 0-.26-.306 4.001 4.001 0 0 1-.542-.48c-1.473-1.57-1.48-4.118 0-5.695l3.524-3.758c1.482-1.58 3.898-1.57 5.368.029 1.455 1.582 1.41 4.135-.06 5.702l-.687.732a.943.943 0 0 0-.199.93c.308.961.475 1.957.509 2.948.026.778.915 1.144 1.431.593l1.947-2.075c3.109-3.315 3.109-8.708 0-12.023Z" fill="#BEDEFC"/></svg>