<svg width="23" height="23" fill="none" xmlns="http://www.w3.org/2000/svg"><path d="M20.96.698H2.034c-.905 0-1.64.711-1.64 1.586v18.834c0 .876.735 1.587 1.64 1.587h18.924c.906 0 1.646-.711 1.646-1.587V2.284c0-.875-.74-1.586-1.646-1.586ZM6.981 19.451H3.687V8.95h3.295v10.502ZM5.335 7.514a1.9 1.9 0 0 1-1.91-1.894 1.9 1.9 0 0 1 1.91-1.891c1.053 0 1.909.848 1.909 1.891a1.902 1.902 0 0 1-1.91 1.894ZM19.319 19.45h-3.29v-5.106c0-1.219-.024-2.785-1.712-2.785-1.715 0-1.976 1.327-1.976 2.696v5.196H9.048V8.949h3.16v1.435h.046c.44-.826 1.514-1.696 3.117-1.696 3.333 0 3.949 2.174 3.949 5.003v5.76Z" fill="#BEDEFC"/></svg>