<svg width="23" height="23" fill="none" xmlns="http://www.w3.org/2000/svg"><path d="M22.482 10.661A11.003 11.003 0 0 0 9.636.465C5.038 1.225 1.354 4.953.639 9.55a11.018 11.018 0 0 0 1.33 7.26l-.978 3.64c-.22.825.539 1.573 1.353 1.341l3.585-.99a10.949 10.949 0 0 0 5.565 1.508c6.204 0 11.35-5.467 10.988-11.648Zm-5.61 4.74a2.506 2.506 0 0 1-1.276 1.21c-.33.143-.692.21-1.077.21-.561 0-1.166-.133-1.793-.408a10.073 10.073 0 0 1-1.892-1.089 15.903 15.903 0 0 1-1.803-1.54 15.73 15.73 0 0 1-1.54-1.803 9.676 9.676 0 0 1-1.078-1.88c-.264-.628-.396-1.233-.396-1.805 0-.374.066-.737.198-1.067.132-.34.341-.648.638-.923.352-.352.737-.517 1.144-.517.154 0 .308.033.45.099a.911.911 0 0 1 .375.308l1.276 1.803c.098.143.175.264.22.385a.803.803 0 0 1 .077.341.788.788 0 0 1-.121.396 1.937 1.937 0 0 1-.308.396l-.418.44a.282.282 0 0 0-.088.22c0 .044.01.088.022.132.022.044.033.077.044.11.099.187.275.418.517.704a14.858 14.858 0 0 0 1.683 1.683c.285.242.527.407.714.506.033.01.066.033.1.044.043.022.087.022.142.022a.3.3 0 0 0 .231-.1l.418-.417a1.77 1.77 0 0 1 .396-.308.758.758 0 0 1 .396-.121c.11 0 .22.022.341.077.12.055.253.12.385.22l1.826 1.298a.93.93 0 0 1 .308.352c.055.143.088.274.088.428-.066.187-.11.396-.198.594Z" fill="#BEDEFC"/></svg>