<svg xmlns="http://www.w3.org/2000/svg" xmlns:xlink="http://www.w3.org/1999/xlink" width="500" zoomAndPan="magnify" viewBox="0 0 375 374.999991" height="500" preserveAspectRatio="xMidYMid meet" version="1.0"><defs><g/><clipPath id="305e57dbfd"><path d="M 143.40625 88.589844 L 231.90625 88.589844 L 231.90625 185.339844 L 143.40625 185.339844 Z M 143.40625 88.589844 " clip-rule="nonzero"/></clipPath><clipPath id="66a151550b"><path d="M 162 255 L 213 255 L 213 267 L 162 267 Z M 162 255 " clip-rule="nonzero"/></clipPath><clipPath id="371febb8e0"><path d="M 187.5 234.867188 L 213.484375 260.855469 L 187.5 286.839844 L 161.515625 260.855469 Z M 187.5 234.867188 " clip-rule="nonzero"/></clipPath><clipPath id="8970082713"><path d="M 187.5 234.867188 L 213.484375 260.855469 L 187.5 286.839844 L 161.515625 260.855469 Z M 187.5 234.867188 " clip-rule="nonzero"/></clipPath></defs><rect x="-37.5" width="450" fill="#ffffff" y="-37.499999" height="449.999989" fill-opacity="1"/><rect x="-37.5" width="450" fill="#ffffff" y="-37.499999" height="449.999989" fill-opacity="1"/><rect x="-37.5" width="450" fill="#000000" y="-37.499999" height="449.999989" fill-opacity="1"/><g clip-path="url(#305e57dbfd)"><path fill="#ffffff" d="M 231.085938 107.675781 L 216.691406 99.367188 C 216.960938 98.554688 217.144531 97.703125 217.144531 96.800781 C 217.144531 92.28125 213.46875 88.605469 208.949219 88.605469 C 204.429688 88.605469 200.753906 92.28125 200.753906 96.800781 C 200.753906 101.320312 204.429688 105 208.949219 105 C 211.386719 105 213.554688 103.90625 215.058594 102.210938 L 228.628906 110.042969 L 228.628906 132.738281 L 208.960938 144.089844 L 189.300781 132.742188 L 189.300781 109.101562 C 189.300781 108.515625 188.988281 107.972656 188.480469 107.679688 L 167.175781 95.382812 C 166.664062 95.089844 166.042969 95.089844 165.535156 95.382812 L 144.230469 107.679688 C 143.722656 107.972656 143.410156 108.515625 143.410156 109.101562 L 143.410156 133.691406 C 143.410156 134.277344 143.722656 134.816406 144.230469 135.109375 L 164.710938 146.929688 L 164.710938 171.394531 C 164.710938 171.980469 165.023438 172.519531 165.53125 172.8125 L 186.835938 185.109375 C 187.09375 185.253906 187.375 185.328125 187.65625 185.328125 C 187.941406 185.328125 188.222656 185.253906 188.476562 185.109375 L 203.347656 176.519531 C 204.816406 177.902344 206.777344 178.765625 208.949219 178.765625 C 213.46875 178.765625 217.144531 175.089844 217.144531 170.570312 C 217.144531 166.050781 213.46875 162.371094 208.949219 162.371094 C 204.429688 162.371094 200.753906 166.050781 200.753906 170.570312 C 200.753906 171.730469 201.003906 172.832031 201.441406 173.832031 L 187.65625 181.792969 L 167.988281 170.445312 L 167.988281 146.933594 L 187.660156 135.582031 L 208.144531 147.402344 C 208.398438 147.546875 208.679688 147.621094 208.960938 147.621094 C 209.246094 147.621094 209.527344 147.546875 209.78125 147.402344 L 231.085938 135.105469 C 231.59375 134.8125 231.90625 134.273438 231.90625 133.6875 L 231.90625 109.097656 C 231.90625 108.511719 231.59375 107.96875 231.085938 107.675781 Z M 208.949219 101.71875 C 206.238281 101.71875 204.03125 99.511719 204.03125 96.800781 C 204.03125 94.089844 206.238281 91.882812 208.949219 91.882812 C 211.660156 91.882812 213.867188 94.089844 213.867188 96.800781 C 213.867188 99.511719 211.660156 101.71875 208.949219 101.71875 Z M 208.949219 165.652344 C 211.660156 165.652344 213.867188 167.855469 213.867188 170.570312 C 213.867188 173.28125 211.660156 175.488281 208.949219 175.488281 C 206.238281 175.488281 204.03125 173.28125 204.03125 170.570312 C 204.03125 167.855469 206.238281 165.652344 208.949219 165.652344 Z M 186.019531 132.742188 L 166.355469 144.09375 L 146.6875 132.742188 L 146.6875 110.046875 L 166.355469 98.695312 L 186.019531 110.046875 Z M 186.019531 132.742188 " fill-opacity="1" fill-rule="nonzero"/></g><g clip-path="url(#66a151550b)"><g clip-path="url(#371febb8e0)"><g clip-path="url(#8970082713)"><path fill="#ffffff" d="M 212.621094 259.988281 L 208.164062 255.53125 C 207.6875 255.054688 206.910156 255.054688 206.433594 255.53125 L 202.335938 259.628906 L 172.664062 259.628906 L 168.566406 255.53125 C 168.089844 255.054688 167.3125 255.054688 166.835938 255.53125 L 162.378906 259.988281 C 161.902344 260.464844 161.902344 261.242188 162.378906 261.71875 L 166.835938 266.175781 C 167.3125 266.652344 168.089844 266.652344 168.566406 266.175781 L 172.664062 262.078125 L 202.335938 262.078125 L 206.433594 266.175781 C 206.910156 266.652344 207.6875 266.652344 208.164062 266.175781 L 212.621094 261.71875 C 213.097656 261.242188 213.097656 260.464844 212.621094 259.988281 Z M 167.699219 263.574219 L 164.976562 260.855469 L 167.699219 258.132812 L 170.421875 260.851562 Z M 207.296875 263.578125 L 204.578125 260.855469 L 207.300781 258.132812 L 210.019531 260.855469 Z M 207.296875 263.578125 " fill-opacity="1" fill-rule="nonzero"/></g></g></g><g fill="#ffffff" fill-opacity="1"><g transform="translate(165.918745, 238.538706)"><g><path d="M 0.96875 10.40625 C -0.65625 10.40625 -2.203125 10.25 -3.671875 9.9375 L -3.671875 2.96875 C -3.191406 3.0625 -2.675781 3.164062 -2.125 3.28125 C -1.582031 3.394531 -0.992188 3.453125 -0.359375 3.453125 C 1.117188 3.453125 2.175781 3.003906 2.8125 2.109375 C 3.445312 1.210938 3.765625 -0.3125 3.765625 -2.46875 L 3.765625 -33.15625 L 12.765625 -33.15625 L 12.765625 -3.25 C 12.765625 1.25 11.78125 4.648438 9.8125 6.953125 C 7.851562 9.253906 4.90625 10.40625 0.96875 10.40625 Z M 0.96875 10.40625 "/></g></g></g><g fill="#ffffff" fill-opacity="1"><g transform="translate(182.269051, 238.538706)"><g><path d="M 25.265625 -10.078125 C 25.265625 -8.015625 24.742188 -6.1875 23.703125 -4.59375 C 22.660156 -3 21.15625 -1.757812 19.1875 -0.875 C 17.21875 0.0078125 14.910156 0.453125 12.265625 0.453125 C 10.054688 0.453125 8.203125 0.300781 6.703125 0 C 5.210938 -0.3125 3.660156 -0.859375 2.046875 -1.640625 L 2.046875 -9.625 C 3.753906 -8.738281 5.53125 -8.050781 7.375 -7.5625 C 9.21875 -7.070312 10.910156 -6.828125 12.453125 -6.828125 C 13.785156 -6.828125 14.757812 -7.054688 15.375 -7.515625 C 16 -7.984375 16.3125 -8.578125 16.3125 -9.296875 C 16.3125 -9.753906 16.1875 -10.148438 15.9375 -10.484375 C 15.6875 -10.828125 15.285156 -11.171875 14.734375 -11.515625 C 14.179688 -11.867188 12.710938 -12.582031 10.328125 -13.65625 C 8.160156 -14.632812 6.535156 -15.582031 5.453125 -16.5 C 4.367188 -17.425781 3.566406 -18.488281 3.046875 -19.6875 C 2.523438 -20.882812 2.265625 -22.300781 2.265625 -23.9375 C 2.265625 -26.988281 3.375 -29.367188 5.59375 -31.078125 C 7.820312 -32.785156 10.878906 -33.640625 14.765625 -33.640625 C 18.203125 -33.640625 21.703125 -32.84375 25.265625 -31.25 L 22.515625 -24.34375 C 19.421875 -25.757812 16.75 -26.46875 14.5 -26.46875 C 13.332031 -26.46875 12.484375 -26.265625 11.953125 -25.859375 C 11.421875 -25.453125 11.15625 -24.945312 11.15625 -24.34375 C 11.15625 -23.6875 11.488281 -23.097656 12.15625 -22.578125 C 12.832031 -22.066406 14.660156 -21.132812 17.640625 -19.78125 C 20.503906 -18.488281 22.488281 -17.101562 23.59375 -15.625 C 24.707031 -14.15625 25.265625 -12.304688 25.265625 -10.078125 Z M 25.265625 -10.078125 "/></g></g></g></svg>