<svg width="400" height="400" viewBox="0 0 400 400" fill="none" xmlns="http://www.w3.org/2000/svg">
<path d="M199.531 121.406C199.531 149.375 176.875 172.031 148.906 172.031C121.094 171.875 98.4375 149.219 98.4375 121.406C98.4375 93.4375 121.094 70.7812 148.906 70.7812C152.188 70.7812 155.625 71.0938 158.75 71.7188L146.875 97.1875C146.406 97.1875 145.938 97.1875 145.312 97.1875C133.438 97.1875 123.75 106.875 123.75 118.75C123.75 130.625 133.438 140.312 145.312 140.312C157.188 140.312 166.875 130.625 166.875 118.75C166.875 112.969 164.531 107.656 160.781 103.75L173.281 77.0312C188.906 85.625 199.531 102.188 199.531 121.406ZM396.875 298.281H360.469C368.125 296.094 374.688 291.094 379.219 284.375C385.469 274.688 386.406 262.812 381.719 252.344L342.969 165.625L325.312 158.906L349.062 77.5L325.781 70.7812L275.469 243.594L298.75 250.312L319.844 177.969L328.281 181.094L363.75 260.312C365.781 264.688 365.312 269.531 362.656 273.594C360 277.656 355.781 280 350.938 280H298.438V298.438H249.219C248.75 281.094 235.156 267.656 218.438 267.656H150.781C150.781 267.656 120.781 188.75 120.156 187.5C113.906 171.094 100 159.219 82.0312 159.219C59.0625 159.219 41.5625 178.281 29.0625 205.781C12.3438 242.5 3.28125 286.562 3.125 329.375L396.875 329.219V298.281Z" fill="#283841"/>
</svg>
