<svg width="300" height="300" viewBox="0 0 300 300" fill="none" xmlns="http://www.w3.org/2000/svg">
<path d="M276.425 35.932H81.8055C79.1114 35.932 76.927 38.1164 76.927 40.8105C76.927 43.5046 79.1114 45.689 81.8055 45.689H276.424C284.044 45.689 290.242 51.8882 290.242 59.5066V240.494C290.242 248.113 284.043 254.311 276.424 254.311H122.029C119.335 254.311 117.151 256.495 117.151 259.19C117.151 261.884 119.335 264.068 122.029 264.068H276.424C289.424 264.068 299.999 253.493 299.999 240.494V59.5066C300 46.507 289.424 35.932 276.425 35.932Z" fill="#283841"/>
<path d="M102.516 254.312H23.5746C15.955 254.312 9.75701 248.113 9.75701 240.494V59.507C9.75701 51.888 15.955 45.69 23.5746 45.69H62.2915C64.9856 45.69 67.17 43.5056 67.17 40.8115C67.17 38.1174 64.9856 35.933 62.2915 35.933H23.5746C10.575 35.933 0 46.508 0 59.507V240.494C0 253.493 10.575 264.068 23.5746 264.068H102.515C105.21 264.068 107.394 261.884 107.394 259.19C107.394 256.496 105.21 254.312 102.516 254.312Z" fill="#283841"/>
<path d="M267.266 98.834H32.734C30.0398 98.834 27.8555 101.018 27.8555 103.712V230.584C27.8555 233.278 30.0398 235.463 32.734 235.463H206.322C209.016 235.463 211.201 233.278 211.201 230.584C211.201 227.89 209.016 225.706 206.322 225.706H37.6125V108.591H262.387V225.706H225.836C223.142 225.706 220.958 227.89 220.958 230.584C220.958 233.278 223.142 235.463 225.836 235.463H267.266C269.96 235.463 272.144 233.278 272.144 230.584V103.712C272.144 101.018 269.96 98.834 267.266 98.834Z" fill="#283841"/>
<path d="M256.465 83.0635C262.431 83.0635 267.268 78.2268 267.268 72.2605C267.268 66.2943 262.431 61.4576 256.465 61.4576C250.499 61.4576 245.662 66.2943 245.662 72.2605C245.662 78.2268 250.499 83.0635 256.465 83.0635Z" fill="#283841"/>
<path d="M223.929 83.0635C229.895 83.0635 234.732 78.2268 234.732 72.2605C234.732 66.2943 229.895 61.4576 223.929 61.4576C217.963 61.4576 213.126 66.2943 213.126 72.2605C213.126 78.2268 217.963 83.0635 223.929 83.0635Z" fill="#283841"/>
<path d="M191.399 83.0635C197.365 83.0635 202.202 78.2268 202.202 72.2605C202.202 66.2943 197.365 61.4576 191.399 61.4576C185.433 61.4576 180.596 66.2943 180.596 72.2605C180.596 78.2268 185.433 83.0635 191.399 83.0635Z" fill="#283841"/>
</svg>
