<svg width="76" height="76" fill="none" xmlns="http://www.w3.org/2000/svg"><g clip-path="url(#a)"><path d="M76 0H0v76h76V0Z" fill="#292D32"/><path d="M31.944 23.437V44.1c0 3.003-.981 5.401-2.942 7.194-1.947 1.793-4.528 2.69-7.746 2.69-3.203 0-5.731-.798-7.585-2.391-1.854-1.594-2.743-3.907-2.666-6.942l.046-.114h6.826c0 1.394.322 2.42.965 3.08.644.659 1.494.988 2.552.988 1.057 0 1.915-.399 2.574-1.195.674-.812 1.011-1.916 1.011-3.31l-.023-20.663h6.988ZM53.595 48.697v.023c1.425 0 2.498-.276 3.218-.828.72-.567 1.08-1.356 1.08-2.367s-.337-1.8-1.011-2.368c-.659-.582-1.931-1.218-3.816-1.907-4.076-1.272-6.964-2.597-8.665-3.977-1.7-1.394-2.551-3.34-2.551-5.838 0-2.513 1.08-4.543 3.24-6.09C47.252 23.781 50.026 23 53.41 23c3.403 0 6.161.858 8.275 2.574 2.115 1.716 3.134 3.923 3.058 6.62l-.046.138h-6.78c0-1.241-.415-2.23-1.242-2.965-.812-.736-1.923-1.104-3.333-1.104-1.394 0-2.498.307-3.31.92-.812.613-1.218 1.364-1.218 2.252 0 .89.383 1.602 1.15 2.138.766.536 2.298 1.218 4.596 2.045 3.586 1.058 6.206 2.337 7.86 3.839 1.656 1.502 2.483 3.547 2.483 6.137 0 2.59-1.026 4.635-3.08 6.137-2.038 1.501-4.78 2.252-8.228 2.252-2.33 0-4.436-.368-6.32-1.103-1.886-.751-3.403-1.893-4.551-3.425-1.135-1.547-1.678-3.37-1.633-5.47l.023-.115h6.827c0 1.7.452 2.934 1.356 3.7.92.752 2.352 1.127 4.298 1.127Z" fill="#1C94D8"/></g><defs><clipPath id="a"><path fill="#fff" d="M0 0h76v76H0z"/></clipPath></defs></svg>